HIERARCHY
ROOT Hips
{
	OFFSET 0.000000 0.000000 -0.875853
	CHANNELS 6 Xposition Yposition Zposition Zrotation Yrotation Xrotation
	JOINT LHipJoint
	{
		OFFSET 0.000000 0.000000 0.000000
		CHANNELS 6 Xposition Yposition Zposition Zrotation Yrotation Xrotation
		JOINT LeftHip
		{
			OFFSET 1.611894 -0.673180 -0.658330
			CHANNELS 3 Zrotation Yrotation Xrotation
			JOINT LeftKnee
			{
				OFFSET 0.014856 -0.000000 -4.809133
				CHANNELS 6 Xposition Yposition Zposition Zrotation Yrotation Xrotation
				JOINT LeftAnkle
				{
					OFFSET 0.014554 0.000000 -7.368487
					CHANNELS 6 Xposition Yposition Zposition Zrotation Yrotation Xrotation
					JOINT LeftToe
					{
						OFFSET 0.001350 -2.102140 -0.681086
						CHANNELS 6 Xposition Yposition Zposition Zrotation Yrotation Xrotation
						End Site
						{
							OFFSET 0.000000 -1.101390 -0.000001
						}
					}
				}
			}
		}
	}
	JOINT RHipJoint
	{
		OFFSET 0.000000 0.000000 0.000000
		CHANNELS 6 Xposition Yposition Zposition Zrotation Yrotation Xrotation
		JOINT RightHip
		{
			OFFSET -1.611894 -0.673180 -0.658330
			CHANNELS 3 Zrotation Yrotation Xrotation
			JOINT RightKnee
			{
				OFFSET -0.014856 -0.000000 -4.809133
				CHANNELS 6 Xposition Yposition Zposition Zrotation Yrotation Xrotation
				JOINT RightAnkle
				{
					OFFSET -0.014554 0.000000 -7.368487
					CHANNELS 6 Xposition Yposition Zposition Zrotation Yrotation Xrotation
					JOINT RightToe
					{
						OFFSET -0.001350 -2.102140 -0.681086
						CHANNELS 6 Xposition Yposition Zposition Zrotation Yrotation Xrotation
						End Site
						{
							OFFSET 0.000000 -1.101390 -0.000001
						}
					}
				}
			}
		}
	}
	JOINT lowerback
	{
		OFFSET 0.000000 0.000000 0.000000
		CHANNELS 6 Xposition Yposition Zposition Zrotation Yrotation Xrotation
		JOINT Chest
		{
			OFFSET -0.021080 0.169810 2.075729
			CHANNELS 3 Zrotation Yrotation Xrotation
			JOINT Chest2
			{
				OFFSET 0.050700 0.031410 2.084391
				CHANNELS 6 Xposition Yposition Zposition Zrotation Yrotation Xrotation
				JOINT lowerneck
				{
					OFFSET 0.000000 0.000000 0.000000
					CHANNELS 6 Xposition Yposition Zposition Zrotation Yrotation Xrotation
					JOINT Neck
					{
						OFFSET -0.107310 -0.313700 1.604080
						CHANNELS 3 Zrotation Yrotation Xrotation
						JOINT Head
						{
							OFFSET 0.084110 0.308220 1.656790
							CHANNELS 6 Xposition Yposition Zposition Zrotation Yrotation Xrotation
							End Site
							{
								OFFSET 0.039110 0.141460 1.691490
							}
						}
					}
				}
				JOINT LeftCollar
				{
					OFFSET 0.000000 0.000000 0.000000
					CHANNELS 6 Xposition Yposition Zposition Zrotation Yrotation Xrotation
					JOINT LeftShoulder
					{
						OFFSET 2.210152 0.546940 0.732191
						CHANNELS 3 Zrotation Xrotation Yrotation
						JOINT LeftElbow
						{
							OFFSET 4.208010 -0.000001 0.067692
							CHANNELS 6 Xposition Yposition Zposition Zrotation Xrotation Yrotation
							JOINT LeftWrist
							{
								OFFSET 4.447773 -0.000001 0.079357
								CHANNELS 6 Xposition Yposition Zposition Zrotation Xrotation Yrotation
								JOINT lhand
								{
									OFFSET 0.000000 0.000000 0.000000
									CHANNELS 6 Xposition Yposition Zposition Zrotation Xrotation Yrotation
									JOINT LFingers
									{
										OFFSET 0.572473 0.000000 -0.002867
										CHANNELS 3 Zrotation Xrotation Yrotation
										End Site
										{
											OFFSET 0.461535 0.000000 -0.002314
										}
									}
								}
								JOINT LThumb
								{
									OFFSET 0.000000 0.000000 0.000000
									CHANNELS 6 Xposition Yposition Zposition Zrotation Xrotation Yrotation
									End Site
									{
										OFFSET 0.468585 -0.468590 -0.002348
									}
								}
							}
						}
					}
				}
				JOINT RightCollar
				{
					OFFSET -0.059240 0.000000 0.000000
					CHANNELS 6 Xposition Yposition Zposition Zrotation Yrotation Xrotation
					JOINT RightShoulder
					{
						OFFSET -2.210152 0.546940 0.732191
						CHANNELS 6 Xposition Yposition Zposition Zrotation Xrotation Yrotation
						JOINT RightElbow
						{
							OFFSET -4.208010 -0.000001 0.067692
							CHANNELS 6 Xposition Yposition Zposition Zrotation Xrotation Yrotation
							JOINT RightWrist
							{
								OFFSET -4.447773 -0.000001 0.079357
								CHANNELS 6 Xposition Yposition Zposition Zrotation Xrotation Yrotation
								JOINT rhand
								{
									OFFSET -0.100282 0.186255 0.048263
									CHANNELS 6 Xposition Yposition Zposition Zrotation Xrotation Yrotation
									JOINT RFingers
									{
										OFFSET -0.731912 0.000000 -0.065197
										CHANNELS 6 Xposition Yposition Zposition Zrotation Xrotation Yrotation
										End Site
										{
											OFFSET -0.590084 0.000000 -0.052563
										}
									}
								}
								JOINT RThumb
								{
									OFFSET -0.100282 0.186255 0.048263
									CHANNELS 6 Xposition Yposition Zposition Zrotation Xrotation Yrotation
									End Site
									{
										OFFSET -0.599097 -0.601470 -0.053366
									}
								}
							}
						}
					}
				}
			}
		}
	}
}
MOTION
Frames: 4
Frame Time: 0.041667
25.339586 0.094137 13.245052 86.638928 5.320702 1.379675 -0.000002 0.000003 -0.000001 -0.000002 -0.000003 -0.000003 3.785930 -2.759260 -19.085529 0.014856 -0.000005 -4.809134 0.011381 -11.219368 62.830309 0.014555 -0.000002 -7.368489 5.748201 3.040114 2.246941 0.001349 -2.102136 -0.681085 0.000004 -0.000019 -0.964189 -0.000001 0.000007 -0.000003 -7.902449 -0.123241 0.843560 0.708393 -13.598452 -8.706350 -0.014857 0.000006 -4.809133 -5.491659 4.869832 11.180921 -0.014552 -0.000009 -7.368487 -3.467845 3.821887 -4.427341 -0.001348 -2.102150 -0.681087 0.000018 0.000036 -3.621703 -0.000000 0.000005 -0.000002 -0.025611 0.900029 1.852696 -10.514970 -3.758826 4.482847 0.050701 0.031411 2.084387 -32.832975 -3.708221 3.927605 0.000001 0.000000 0.000002 0.000001 -0.000000 -0.000002 -5.709130 -0.999247 4.132341 0.084107 0.308220 1.656788 -38.413964 -8.574625 -7.910153 -0.000003 -0.000009 -0.000002 -21.951402 14.228854 0.888550 -0.448173 -2.390954 62.102942 4.208006 -0.000003 0.067689 -14.326651 -0.090310 -0.011368 4.447767 -0.000002 0.079364 -26.870861 20.848032 -12.249937 -0.000003 -0.000001 0.000007 -0.000001 0.000001 -0.000005 -0.000000 -0.000002 0.000002 -0.000005 -0.000003 -0.000006 -0.000007 0.000000 -0.000003 -0.059237 -0.000002 0.000004 -2.204990 -12.563624 4.242238 -2.210154 0.546937 0.732191 16.944536 4.514821 -63.970958 -4.208011 -0.000002 0.067690 17.808567 -0.111610 0.017482 -4.447774 0.000002 0.079353 18.970630 32.030227 7.500785 -0.100279 0.186256 0.048266 -0.000001 0.000000 0.000002 -0.731910 0.000002 -0.065197 -0.000002 -0.000002 0.000005 -0.100283 0.186257 0.048263 -0.000001 0.000003 0.000002 
26.145224 0.129004 13.322305 85.806212 4.664086 1.478981 -0.000002 -0.000001 -0.000004 0.000002 -0.000003 -0.000010 2.152702 -1.940253 -25.574612 0.014856 -0.000009 -4.809133 0.934143 -10.859895 59.919631 0.014555 0.000003 -7.368486 5.000149 2.207500 -2.980400 0.001351 -2.102139 -0.681082 0.000003 -0.000023 0.384113 -0.000001 0.000003 -0.000006 -7.902452 -0.123241 0.843560 -1.826865 -12.306529 -3.343305 -0.014854 0.000003 -4.809133 -4.651793 4.456330 8.841088 -0.014552 -0.000007 -7.368490 -1.267838 3.138030 -4.787948 -0.001352 -2.102146 -0.681087 0.000011 0.000036 -6.426274 -0.000000 0.000001 -0.000005 -0.025613 0.900031 1.852696 -8.962146 -3.258629 4.229639 0.050700 0.031407 2.084392 -31.864946 -3.519529 3.855006 -0.000001 -0.000002 0.000008 -0.000005 -0.000001 0.000000 -6.014777 -1.011823 4.537978 0.084104 0.308222 1.656792 -39.259760 -8.752835 -8.050183 -0.000005 -0.000011 0.000001 -21.765899 14.886747 0.819725 6.537430 -1.602713 63.036424 4.208006 -0.000003 0.067688 -8.237386 -0.052289 -0.003782 4.447766 -0.000001 0.079356 -27.600487 25.648863 -9.973865 -0.000004 -0.000001 0.000004 0.000002 -0.000001 -0.000001 -0.000001 -0.000001 -0.000001 -0.000004 -0.000003 -0.000007 -0.000001 0.000004 -0.000003 -0.059241 -0.000002 0.000006 -0.701597 -11.593996 3.993468 -2.210151 0.546941 0.732191 22.420987 2.177436 -61.768290 -4.208015 0.000003 0.067691 20.242490 -0.126276 0.022543 -4.447774 -0.000002 0.079352 15.659411 23.878789 5.297308 -0.100282 0.186254 0.048264 0.000001 -0.000000 0.000004 -0.731911 0.000000 -0.065197 -0.000000 -0.000001 0.000004 -0.100282 0.186255 0.048262 -0.000001 0.000003 0.000009 
26.968670 0.163690 13.324047 84.405060 3.991314 1.758667 -0.000002 -0.000002 -0.000001 -0.000004 -0.000004 -0.000007 1.599157 -1.579646 -31.035751 0.014856 -0.000004 -4.809134 2.463600 -10.348911 53.445202 0.014555 0.000001 -7.368480 3.807746 1.650294 -5.773828 0.001351 -2.102139 -0.681086 0.000006 -0.000022 1.088349 -0.000002 0.000002 -0.000003 -7.902454 -0.123241 0.843562 -4.726987 -10.023934 0.967019 -0.014854 0.000000 -4.809131 -1.741501 3.018327 9.163121 -0.014556 -0.000005 -7.368493 -0.287254 2.806131 -6.110832 -0.001349 -2.102152 -0.681089 0.000004 0.000036 -8.723407 0.000000 0.000000 -0.000002 -0.025612 0.900031 1.852695 -7.275996 -2.909585 3.986019 0.050699 0.031413 2.084388 -30.836402 -3.459051 3.755495 0.000001 0.000003 0.000003 0.000005 -0.000000 0.000000 -6.250978 -0.839506 4.687921 0.084108 0.308218 1.656793 -39.742941 -8.662288 -8.789887 -0.000001 -0.000004 -0.000004 -21.304043 15.451155 0.802392 13.517284 0.044658 63.362033 4.208008 0.000001 0.067695 -4.255506 -0.027103 -0.001018 4.447773 -0.000005 0.079356 -26.107356 30.104568 -9.035056 -0.000001 -0.000001 0.000005 0.000001 0.000001 -0.000005 0.000002 -0.000001 0.000004 -0.000004 -0.000003 -0.000009 -0.000004 0.000001 -0.000002 -0.059237 0.000002 -0.000001 1.237022 -9.861643 3.701816 -2.210156 0.546940 0.732194 28.062901 1.209614 -59.103130 -4.208013 -0.000001 0.067691 23.986026 -0.148346 0.031500 -4.447773 0.000002 0.079353 9.336007 16.084906 2.306248 -0.100280 0.186252 0.048263 -0.000001 -0.000001 0.000003 -0.731908 0.000002 -0.065197 0.000004 0.000000 0.000003 -0.100283 0.186253 0.048262 -0.000008 0.000002 0.000006 
27.806864 0.195944 13.257442 82.603242 3.348371 2.308653 -0.000002 0.000003 -0.000002 -0.000001 -0.000001 -0.000005 2.028933 -1.391960 -35.005420 0.014855 -0.000003 -4.809133 4.144977 -8.890672 42.808641 0.014555 -0.000003 -7.368485 2.208420 1.299117 -6.538892 0.001350 -2.102139 -0.681086 0.000004 -0.000022 1.152222 -0.000001 0.000005 -0.000004 -7.902453 -0.123246 0.843561 -7.742753 -6.844301 4.289409 -0.014856 0.000001 -4.809133 2.399029 0.605870 8.813958 -0.014553 -0.000006 -7.368493 -0.245108 2.895834 -8.351857 -0.001351 -2.102151 -0.681088 0.000004 0.000037 -9.502554 0.000000 0.000003 -0.000003 -0.025610 0.900030 1.852696 -5.592500 -2.723024 3.646335 0.050702 0.031412 2.084392 -29.838187 -3.529089 3.492097 0.000001 0.000004 0.000005 0.000002 0.000000 -0.000004 -6.394920 -0.462998 4.598631 0.084114 0.308222 1.656788 -39.928736 -8.242474 -9.749610 -0.000002 -0.000003 -0.000003 -20.406529 15.794215 0.885847 19.878263 2.734747 63.323647 4.208002 -0.000004 0.067688 -2.598896 -0.016543 -0.000390 4.447768 0.000001 0.079360 -21.942345 32.057916 -8.595655 0.000003 -0.000001 0.000010 0.000003 -0.000001 -0.000004 0.000002 -0.000001 0.000003 0.000002 -0.000003 -0.000004 -0.000005 0.000003 -0.000000 -0.059238 0.000002 0.000001 3.182956 -7.781814 3.483898 -2.210154 0.546941 0.732194 32.616366 0.387127 -56.043604 -4.208014 -0.000000 0.067692 28.155585 -0.172203 0.043167 -4.447774 0.000001 0.079355 3.178238 10.259906 -0.589712 -0.100280 0.186254 0.048265 -0.000000 0.000001 0.000003 -0.731906 -0.000001 -0.065197 0.000002 0.000000 0.000004 -0.100283 0.186255 0.048264 -0.000004 -0.000001 0.000002 
